<svg width="40" height="40" viewBox="0 0 40 40" fill="none" xmlns="http://www.w3.org/2000/svg">
<path d="M20.0438 30H20C11.9844 30.0094 3.75 32.2187 3.75 37.8094V38.7313H36.25V37.8094C36.25 32.5375 28.0938 30 20.0438 30Z" fill="url(#paint0_linear_839_293)"/>
<path d="M20.7125 35.3969L21.4531 33.9438L20 32.2344L18.5469 33.9438L19.2875 35.3969L18.3906 38.7375H21.6094L20.7125 35.3969Z" fill="#1565C0"/>
<path d="M23.4437 28.5562H16.5562L14.4968 30.7812L17.4593 35.3718L20 32.2343L22.5406 35.3718L25.5031 30.7812L23.4437 28.5562Z" fill="url(#paint1_linear_839_293)"/>
<path d="M20.0001 26.353H17.1626V29.4718C17.1626 30.8812 18.3188 32.0249 19.7438 32.0249H20.2595C21.6845 32.0249 22.8407 30.8812 22.8407 29.4718V26.353H20.0001Z" fill="#EDC391"/>
<path d="M28.5407 15.7593H11.4594C9.6188 15.7593 8.11255 17.3655 8.11255 19.3249C8.11255 21.2843 9.6188 22.8905 11.4594 22.8905H28.5375C30.3782 22.8905 31.8844 21.2843 31.8844 19.3249C31.8844 17.3655 30.3813 15.7593 28.5407 15.7593Z" fill="#EDC391"/>
<path d="M19.9999 3.45947C14.5624 3.45947 9.5249 9.2751 9.5249 17.647C9.5249 25.972 14.7155 30.0876 19.9999 30.0876C25.2843 30.0876 30.4749 25.9688 30.4749 17.6438C30.4749 9.2751 25.4374 3.45947 19.9999 3.45947Z" fill="#F9DDBD"/>
<path d="M14.8624 19.9719C15.7133 19.9719 16.403 19.2584 16.403 18.3782C16.403 17.498 15.7133 16.7844 14.8624 16.7844C14.0115 16.7844 13.3218 17.498 13.3218 18.3782C13.3218 19.2584 14.0115 19.9719 14.8624 19.9719Z" fill="#312D2D"/>
<path d="M25.1373 19.9719C25.9882 19.9719 26.6779 19.2584 26.6779 18.3782C26.6779 17.498 25.9882 16.7844 25.1373 16.7844C24.2864 16.7844 23.5967 17.498 23.5967 18.3782C23.5967 19.2584 24.2864 19.9719 25.1373 19.9719Z" fill="#312D2D"/>
<path d="M21.2063 21.2687C21.1719 21.2562 21.1407 21.2468 21.1063 21.2437H18.8938C18.8594 21.2468 18.8251 21.2562 18.7938 21.2687C18.5938 21.3499 18.4844 21.5562 18.5782 21.778C18.6719 21.9999 19.1126 22.6187 20.0001 22.6187C20.8876 22.6187 21.3282 21.9968 21.4219 21.778C21.5157 21.5562 21.4063 21.3499 21.2063 21.2687Z" fill="#DBA689"/>
<path d="M22.6312 23.7939C21.6375 24.3845 18.3718 24.3845 17.3781 23.7939C16.8062 23.4532 16.2218 23.9751 16.4593 24.4939C16.6937 25.0032 18.4718 26.1876 20.0125 26.1876C21.5531 26.1876 23.3093 25.0032 23.5437 24.4939C23.7781 23.9751 23.2031 23.4532 22.6312 23.7939Z" fill="#444444"/>
<path d="M20 1.25928H19.9875C5.7906 1.33428 8.69998 17.553 8.69998 17.553C8.69998 17.553 9.33748 19.2249 9.62811 19.9624C9.66873 20.0687 9.82498 20.0562 9.84998 19.9468C10.1531 18.5905 11.2437 13.7812 11.7937 12.3187C11.9509 11.902 12.2495 11.5538 12.6374 11.335C13.0253 11.1162 13.4777 11.0407 13.9156 11.1218C15.3062 11.3749 17.525 11.6874 19.9687 11.6874H20.0187C22.4625 11.6874 24.6812 11.3749 26.0719 11.1218C26.9781 10.9562 27.8719 11.4593 28.1937 12.3187C28.7406 13.7749 29.825 18.5562 30.1312 19.9312C30.1562 20.0437 30.3125 20.053 30.3531 19.9468L31.2844 17.5499C31.2906 17.553 34.2 1.33428 20 1.25928Z" fill="#312D2D"/>
<path d="M31.2907 17.553C31.2907 17.553 34.2001 1.33428 20.0001 1.25928H19.9876C19.7657 1.25928 19.5501 1.26553 19.3376 1.2749C18.9157 1.29365 18.5063 1.3249 18.1126 1.37178H18.1001C18.0719 1.3749 18.0469 1.38115 18.0188 1.38428C6.06881 2.8874 8.70006 17.553 8.70006 17.553L9.63131 19.953C9.67193 20.0593 9.82506 20.0499 9.85006 19.9374C10.1563 18.5655 11.2438 13.778 11.7938 12.3218C11.9509 11.9051 12.2496 11.5569 12.6374 11.3381C13.0253 11.1193 13.4778 11.0438 13.9157 11.1249C15.3063 11.378 17.5251 11.6905 19.9688 11.6905H20.0188C22.4626 11.6905 24.6813 11.378 26.0719 11.1249C26.9782 10.9593 27.8719 11.4624 28.1938 12.3218C28.7438 13.7843 29.8344 18.603 30.1344 19.953C30.1594 20.0655 30.3126 20.0749 30.3532 19.9687C30.6501 19.2312 31.2907 17.553 31.2907 17.553Z" fill="url(#paint2_radial_839_293)"/>
<path d="M12.5032 15.8499C13.4376 14.528 15.5595 14.403 16.7751 15.3874C16.9689 15.5436 17.2251 15.7624 17.3001 16.0061C17.4251 16.403 17.0439 16.7124 16.672 16.6186C16.4345 16.5593 16.2126 16.4311 15.9782 16.3593C15.5501 16.2249 15.2407 16.1874 14.8564 16.1874C14.2876 16.1843 13.922 16.2561 13.3814 16.4749C13.1595 16.5655 12.9782 16.7093 12.7251 16.603C12.4345 16.4843 12.3251 16.1124 12.5032 15.8499Z" fill="#454140"/>
<path d="M26.8969 16.603C26.8062 16.5623 26.7187 16.5123 26.6281 16.4748C26.0719 16.2436 25.7562 16.1842 25.1531 16.1873C24.6219 16.1905 24.3062 16.2623 23.8906 16.403C23.6375 16.4905 23.3156 16.7092 23.0344 16.6248C22.6219 16.4998 22.6344 16.0498 22.8594 15.7623C23.1281 15.4248 23.4969 15.1686 23.8875 14.9998C24.7937 14.6061 25.9 14.6623 26.7531 15.1717C27.0312 15.3373 27.3344 15.5655 27.5031 15.853C27.7469 16.2592 27.3781 16.7998 26.8969 16.603Z" fill="#454140"/>
<defs>
<linearGradient id="paint0_linear_839_293" x1="20" y1="29.9025" x2="20" y2="38.6559" gradientUnits="userSpaceOnUse">
<stop offset="0.003" stop-color="#E3F2FD"/>
<stop offset="0.225" stop-color="#D6ECFC"/>
<stop offset="0.635" stop-color="#B4DBFB"/>
<stop offset="1" stop-color="#90CAF9"/>
</linearGradient>
<linearGradient id="paint1_linear_839_293" x1="20" y1="34.9002" x2="20" y2="29.2024" gradientUnits="userSpaceOnUse">
<stop offset="0.5" stop-color="#F5F5F5"/>
<stop offset="1" stop-color="#DADADA"/>
</linearGradient>
<radialGradient id="paint2_radial_839_293" cx="0" cy="0" r="1" gradientUnits="userSpaceOnUse" gradientTransform="translate(19.9947 14.7179) scale(11.9041 13.4302)">
<stop offset="0.794" stop-color="#454140" stop-opacity="0"/>
<stop offset="1" stop-color="#454140"/>
</radialGradient>
</defs>
</svg>
