<svg width="30" height="30" viewBox="0 0 30 30" fill="none" xmlns="http://www.w3.org/2000/svg">
<path d="M15.9375 24.375C15.9375 24.375 21.7388 22.4419 26.25 26.0737C26.25 26.0156 26.25 24.375 26.25 24.375C20.9766 21.4453 15.9375 24.375 15.9375 24.375ZM1.875 5.625V24.2578C1.875 24.2578 4.395 22.4409 7.96875 22.4409C11.5425 22.4409 14.0625 24.2578 14.0625 24.2578V5.85937C14.0625 5.85937 11.5425 3.75 7.96875 3.75C4.395 3.75 1.875 5.625 1.875 5.625ZM3.75 7.5H7.5V12.1875H3.75V7.5ZM12.1875 19.6875H3.75V18.75H12.1875V19.6875ZM12.1875 17.8125H3.75V16.875H12.1875V17.8125ZM12.1875 15.9375H3.75V15H12.1875V15.9375ZM12.1875 14.0625H3.75V13.125H12.1875V14.0625ZM8.4375 7.5H12.1875V8.4375H8.4375V7.5ZM8.4375 9.375H12.1875V10.3125H8.4375V9.375ZM8.4375 11.25H12.1875V12.1875H8.4375V11.25ZM21.0938 3.75C17.52 3.75 15 5.625 15 5.625V24.2578C15 24.2578 17.52 22.4409 21.0938 22.4409C24.6675 22.4409 27.1875 24.2578 27.1875 24.2578V5.85937C27.1875 5.85937 24.6675 3.75 21.0938 3.75ZM25.3125 19.6875H16.875V18.75H25.3125V19.6875ZM25.3125 17.8125H16.875V16.875H25.3125V17.8125ZM25.3125 15.9375H16.875V15H25.3125V15.9375ZM25.3125 14.0625H16.875V13.125H25.3125V14.0625ZM25.3125 12.1875H16.875V11.25H25.3125V12.1875ZM25.3125 10.3125H16.875V9.375H25.3125V10.3125ZM25.3125 8.4375H16.875V7.5H25.3125V8.4375ZM2.8125 24.375C2.8125 24.375 2.8125 26.0156 2.8125 26.0737C7.32375 22.4419 13.125 24.375 13.125 24.375C13.125 24.375 8.08594 21.4453 2.8125 24.375Z" fill="white"/>
</svg>
