<svg width="319" height="52" viewBox="0 0 319 52" fill="none" xmlns="http://www.w3.org/2000/svg">
<path fill-rule="evenodd" clip-rule="evenodd" d="M136.319 10.9382V22.4792H146.931C148.946 22.4792 150.53 22.0072 150.58 19.8034C150.686 17.8209 150.686 15.5965 150.58 13.614C150.53 11.4603 148.91 10.9382 146.931 10.9382H136.319ZM117.296 22.4792H124.955V0.438465H147.671C154.905 0.438465 161.761 5.14401 161.944 12.1566C162.086 14.7881 162.086 17.9389 161.944 20.5705C161.764 27.527 155.052 33.0468 147.671 33.0468H136.319V50.8157H124.955V33.0468H117.296C114.986 33.0468 113.095 31.2147 113.095 28.9726V26.5505C113.095 24.3113 114.986 22.4763 117.296 22.4763V22.4792ZM0 0.438465H11.3641V50.8186H0V0.438465ZM28.2686 40.2481H50.8581V50.8157H16.8308V0.43553H28.2715V40.2452L28.2686 40.2481ZM91.6502 22.9011L86.0212 34.9054H73.3886L67.6859 22.8038V50.8157H56.3218V0.43553H69.4442L79.702 23.2876L89.8889 0.43553H103.088V50.8157H91.6502V22.9011ZM177.863 40.2481H200.453V50.8157H166.425V0.43553H177.863V40.2452V40.2481ZM221.414 30.6394V50.8157H209.902V30.6394L193.316 0.438465H205.344L215.661 19.6235L225.978 0.438465H238.005L221.417 30.6394H221.414ZM263.15 51.1579C260.468 51.2995 257.105 51.3025 254.423 51.1579C247.101 50.7626 240.46 45.585 240.366 38.5194C240.203 26.2348 240.197 13.788 240.366 1.50643L240.38 0.438465H251.747L251.73 1.53594C251.638 7.34189 251.671 13.1714 251.671 18.9803C251.671 24.7863 251.629 30.6188 251.73 36.4218C251.762 38.3571 252.252 40.3573 254.689 40.4547C257.27 40.5579 260.297 40.5815 262.881 40.4547C265.38 40.375 265.955 38.4604 265.991 36.4218C266.091 30.6188 266.05 24.7863 266.05 18.9803C266.05 13.1714 266.082 7.34189 265.991 1.53594L265.973 0.438465H277.34L277.355 1.50643C277.523 13.788 277.517 26.2348 277.355 38.5194C277.261 45.6647 270.516 50.7685 263.147 51.1579H263.15ZM304.765 51.1579C301.986 51.2877 298.691 51.2848 295.912 51.1579C288.822 50.8334 281.768 46.2577 281.768 39.1949V35.0824H293.283V37.8172C293.283 39.6198 294.333 40.3809 296.168 40.4547C298.823 40.5609 301.853 40.5638 304.511 40.4547C306.399 40.378 307.335 39.5283 307.473 37.7376C307.582 36.3569 307.577 34.5897 307.473 33.2061C307.358 31.6543 306.662 30.5686 304.939 30.2707C301.325 29.6452 297.705 29.1053 294.079 28.5537C287.447 27.5447 282.851 23.2404 282.512 16.9064V11.894C282.878 4.87554 289.415 0.485676 296.569 0.0962527C298.897 -0.0306049 301.859 -0.0335551 304.187 0.0962527C311.193 0.485676 318.244 4.88144 318.244 11.9206V15.6879H306.733V12.6079C306.733 11.3276 305.09 10.6992 303.912 10.6579C301.753 10.534 299.003 10.5399 296.841 10.6579C295.531 10.7021 294.032 11.4131 293.87 12.7171C293.776 13.6966 293.784 15.1038 293.873 16.101C293.956 17.0539 294.67 17.8268 295.684 18.0186C299.254 18.6912 302.815 19.2016 306.423 19.6589C314.489 20.6855 318.631 25.8188 318.908 33.0763C319.035 34.9732 319.029 37.3422 318.908 39.2421C318.634 46.2341 311.937 50.8245 304.768 51.155L304.765 51.1579Z" fill="#FEFEFE"/>
</svg>
