<svg width="30" height="30" viewBox="0 0 30 30" fill="none" xmlns="http://www.w3.org/2000/svg">
<path d="M15 16.875C17.5888 16.875 19.6875 14.7763 19.6875 12.1875C19.6875 9.59867 17.5888 7.5 15 7.5C12.4112 7.5 10.3125 9.59867 10.3125 12.1875C10.3125 14.7763 12.4112 16.875 15 16.875Z" stroke="white" stroke-width="1.875" stroke-linecap="round" stroke-linejoin="round"/>
<path d="M21.5625 26.25C21.5625 24.5095 20.8711 22.8403 19.6404 21.6096C18.4097 20.3789 16.7405 19.6875 15 19.6875C13.2595 19.6875 11.5903 20.3789 10.3596 21.6096C9.1289 22.8403 8.4375 24.5095 8.4375 26.25H21.5625Z" stroke="white" stroke-width="1.875" stroke-linecap="round" stroke-linejoin="round"/>
<path d="M22.5 13.125C23.299 13.125 24.0848 12.9208 24.7826 12.5317C25.4805 12.1426 26.0674 11.5815 26.4874 10.9019C26.9075 10.2222 27.1468 9.4464 27.1828 8.6482C27.2187 7.84999 27.05 7.05585 26.6926 6.34119C26.3353 5.62653 25.8012 5.01507 25.1411 4.56487C24.481 4.11468 23.7168 3.8407 22.921 3.76894C22.1252 3.69719 21.3243 3.83004 20.5943 4.15489C19.8643 4.47973 19.2294 4.98579 18.75 5.625" stroke="white" stroke-width="1.875" stroke-linecap="round" stroke-linejoin="round"/>
<path d="M23.4375 22.5H29.0625C29.0625 20.7595 28.3711 19.0903 27.1404 17.8596C25.9097 16.6289 24.2405 15.9375 22.5 15.9375" stroke="white" stroke-width="1.875" stroke-linecap="round" stroke-linejoin="round"/>
<path d="M11.25 5.625C10.7706 4.98579 10.1357 4.47973 9.40574 4.15489C8.67574 3.83004 7.87482 3.69719 7.07904 3.76894C6.28325 3.8407 5.51901 4.11468 4.8589 4.56487C4.19878 5.01507 3.6647 5.62653 3.30737 6.34119C2.95004 7.05585 2.78132 7.84999 2.81724 8.6482C2.85315 9.4464 3.09251 10.2222 3.51258 10.9019C3.93264 11.5815 4.51948 12.1426 5.21735 12.5317C5.91523 12.9208 6.70099 13.125 7.5 13.125" stroke="white" stroke-width="1.875" stroke-linecap="round" stroke-linejoin="round"/>
<path d="M7.5 15.9375C5.75952 15.9375 4.09032 16.6289 2.85961 17.8596C1.6289 19.0903 0.9375 20.7595 0.9375 22.5H6.5625" stroke="white" stroke-width="1.875" stroke-linecap="round" stroke-linejoin="round"/>
</svg>
