<?xml version="1.0" encoding="UTF-8"?>
<!DOCTYPE svg PUBLIC "-//W3C//DTD SVG 1.1//EN" "http://www.w3.org/Graphics/SVG/1.1/DTD/svg11.dtd">
<!-- Creator: CorelDRAW (Evaluation Version) -->
<svg xmlns="http://www.w3.org/2000/svg" xml:space="preserve" width="224px" height="224px" version="1.1" shape-rendering="geometricPrecision" text-rendering="geometricPrecision" image-rendering="optimizeQuality" fill-rule="evenodd" clip-rule="evenodd"
viewBox="0 0 4.46 4.45"
 xmlns:xlink="http://www.w3.org/1999/xlink"
 xmlns:xodm="http://www.corel.com/coreldraw/odm/2003">
 <defs>
   <linearGradient id="id0" gradientUnits="userSpaceOnUse" x1="0.23" y1="2.03" x2="4.46" y2="2.03">
    <stop offset="0" stop-opacity="1" stop-color="#FE8F00"/>
    <stop offset="1" stop-opacity="1" stop-color="#FF3800"/>
   </linearGradient>
 </defs>
 <g id="Layer_x0020_1">
  <metadata id="CorelCorpID_0Corel-Layer"/>
  <path fill="url(#id0)" d="M0.52 1.57c0.1,-0.26 0.27,-0.49 0.44,-0.65 -0.15,-0.02 -0.26,-0.14 -0.28,-0.29l0 0c-0.78,0.78 -0.86,1.87 -0.37,2.7 0.95,1.64 3.31,1.42 4,-0.29 0.07,-0.16 0.14,-0.44 0.15,-0.64l-0.42 0c-0.05,0.49 -0.28,0.86 -0.54,1.14 -0.5,0.49 -1.22,0.63 -1.85,0.43 -0.87,-0.28 -1.54,-1.27 -1.13,-2.4zm0.5 -1.21c0.13,0 0.23,0.1 0.23,0.23 0,0.13 -0.1,0.23 -0.23,0.23 -0.13,0 -0.23,-0.1 -0.23,-0.23 0,-0.13 0.1,-0.23 0.23,-0.23zm0 0.06c0.1,0 0.17,0.07 0.17,0.17 0,0.1 -0.07,0.17 -0.17,0.17 -0.1,0 -0.17,-0.07 -0.17,-0.17 0,-0.1 0.07,-0.17 0.17,-0.17zm0 -0.02c0.11,0 0.19,0.08 0.19,0.19 0,0.11 -0.08,0.19 -0.19,0.19 -0.11,0 -0.19,-0.08 -0.19,-0.19 0,-0.11 0.08,-0.19 0.19,-0.19zm2.01 0.98l0 0.46 0.39 0 0 -0.77c-0.05,-0.01 -0.24,-0.15 -0.27,-0.15 -0.05,0 -0.13,0.03 -0.17,0.05 -0.26,0.13 -0.52,0.39 -0.69,0.61 -0.01,0.02 -0.03,0.04 -0.04,0.04 -0.17,-0.25 -0.45,-0.48 -0.71,-0.63l-0.2 -0.11c-0.05,0.08 -0.19,0.15 -0.28,0.16l0 1.62c0.33,0.22 0.75,0.62 0.96,0.96 0.04,0.06 0.02,0.1 0.09,0.1 0.09,0 0.17,0 0.25,0 0.06,0 0.05,0 0.09,-0.05 0.52,-0.64 0.89,-0.93 1.5,-1.51 0.48,-0.46 0.39,-0.72 0.23,-1.02 -0.48,-0.84 -1.27,-1.14 -1.94,-1.14 -0.62,0 -1.02,0.24 -1.08,0.28l0 0c0.14,0.06 0.21,0.21 0.19,0.36 -0.01,0 -0.01,0 -0.01,0 0.5,-0.29 1.13,-0.29 1.65,-0.05 0.17,0.08 0.46,0.27 0.67,0.5 0.2,0.23 0.32,0.5 0.11,0.73 -0.19,0.21 -0.62,0.53 -0.85,0.74 -0.23,0.21 -0.43,0.45 -0.65,0.68 -0.22,-0.3 -0.52,-0.55 -0.79,-0.71l0 -1.14c0.24,0.22 0.36,0.37 0.54,0.64 0.01,0.01 0.02,0.03 0.02,0.05 0.02,0.02 0.01,0.04 0.01,0.07 0,0.21 0,0.43 0,0.64l0.4 0 0 -0.73c0.01,-0.04 0.15,-0.24 0.18,-0.28 0.1,-0.15 0.21,-0.27 0.4,-0.4l0 0z"/>
 </g>
</svg>
