<svg width="40" height="40" viewBox="0 0 40 40" fill="none" xmlns="http://www.w3.org/2000/svg">
<path fill-rule="evenodd" clip-rule="evenodd" d="M4.68109 14.0601C5.52483 11.7449 7.06043 9.70011 8.62978 8.21298C7.26293 8.06089 6.30106 7.01315 6.11545 5.67812C-0.938215 12.6405 -1.64696 22.4589 2.74048 29.9622C11.3466 44.6813 32.4739 42.7041 38.6669 27.3597C39.2744 25.8388 39.9156 23.3208 40 21.5633L36.2201 21.5464C35.7982 25.957 33.7732 29.3369 31.377 31.7704C26.9558 36.2656 20.4422 37.4823 14.806 35.691C6.95918 33.1899 0.95176 24.2671 4.68109 14.0601ZM9.15291 3.21084C10.3004 3.21084 11.2285 4.1403 11.2285 5.28943C11.2285 6.43857 10.3004 7.36803 9.15291 7.36803C8.00541 7.36803 7.0773 6.43857 7.0773 5.28943C7.0773 4.1403 8.00541 3.21084 9.15291 3.21084ZM9.15291 3.73471C10.0135 3.73471 10.7223 4.42758 10.7223 5.30633C10.7223 6.16819 10.0304 6.87795 9.15291 6.87795C8.29229 6.87795 7.58355 6.18509 7.58355 5.30633C7.58355 4.44447 8.27542 3.73471 9.15291 3.73471ZM9.15291 3.56572C10.1148 3.56572 10.891 4.34308 10.891 5.30633C10.891 6.26958 10.1148 7.04695 9.15291 7.04695C8.19104 7.04695 7.4148 6.26958 7.4148 5.30633C7.4148 4.34308 8.19104 3.56572 9.15291 3.56572ZM27.2427 12.4209V16.578H30.7189V9.64941C30.2464 9.54801 28.5589 8.28058 28.2551 8.29747C27.8164 8.31438 27.074 8.58477 26.7533 8.73686C24.4246 9.8522 22.0958 12.2519 20.5265 14.246C20.4422 14.3474 20.3071 14.5333 20.2228 14.6009C18.7041 12.3363 16.1222 10.2747 13.7935 8.87205L12.0385 7.90879C11.566 8.60166 10.3341 9.29453 9.4904 9.37902V23.8953C12.4604 25.8895 16.2572 29.4721 18.0966 32.5308C18.4509 33.1223 18.2991 33.4265 18.9909 33.4096C19.7165 33.4096 20.4422 33.4096 21.1678 33.4096C21.7246 33.4096 21.6065 33.4603 21.9946 32.9702C26.7026 27.2076 30.027 24.639 35.4775 19.4003C39.7806 15.2769 38.9706 12.9278 37.5532 10.2916C33.1995 2.73766 26.0952 0.0337983 20.0877 0C14.5866 0.0337983 10.9923 2.19689 10.3848 2.51797C11.6335 3.10944 12.3422 4.35998 12.0892 5.72881C16.5779 3.10944 22.2308 3.12635 26.8715 5.28943C28.4239 6.01609 31.0226 7.72291 32.8282 9.7508C34.7013 11.8632 35.7138 14.3136 33.8407 16.3753C32.1532 18.2342 28.3226 21.1409 26.264 22.9829C24.1883 24.9093 22.3321 27.0724 20.4422 29.1679C18.434 26.4472 15.7678 24.1826 13.3378 22.7631V12.5223C15.4978 14.4656 16.561 15.8682 18.1471 18.2173C18.2484 18.3694 18.2991 18.5046 18.4003 18.6735C18.5185 18.9101 18.4847 19.0454 18.4847 19.3495C18.4847 21.2591 18.4847 23.1518 18.4847 25.0615H22.0621V18.5552C22.1127 18.1666 23.3446 16.4091 23.6146 16.0204C24.5933 14.6347 25.5552 13.5869 27.2765 12.4209H27.2427Z" fill="url(#paint0_linear_767_115)"/>
<defs>
<linearGradient id="paint0_linear_767_115" x1="2.09924" y1="18.251" x2="40" y2="18.251" gradientUnits="userSpaceOnUse">
<stop stop-color="#FE9100"/>
<stop offset="1" stop-color="#FF4000"/>
</linearGradient>
</defs>
</svg>
