<svg width="20" height="20" viewBox="0 0 20 20" fill="none" xmlns="http://www.w3.org/2000/svg">
<path d="M13.3463 15.5C13.6155 15.5 13.8078 15.6923 13.8847 15.9231L14.1924 18C14.2693 18.577 14.7309 19 15.3078 19.077L17.8078 19.3462C18.577 19.4231 19.2309 18.8462 19.2309 18.077V15.6923C19.2309 15.3077 19.077 15 18.8078 14.7308C16.3463 12.5 13.077 11.3462 9.96166 11.3462C6.84627 11.3462 3.57704 12.5 1.1155 14.7308C0.884734 14.9616 0.769349 15.3462 0.769349 15.6923V18.077C0.692426 18.8462 1.34627 19.4616 2.1155 19.3462L4.6155 19.077C5.19243 19 5.65396 18.577 5.73089 18L6.03858 15.9231C6.07704 15.6539 6.30781 15.5 6.57704 15.5C6.57704 15.5 9.80781 15.2308 13.3463 15.5Z" fill="#E70A0A"/>
<path d="M15.2693 4.84615C15.4616 4.65385 15.8078 4.80769 15.8078 5.07692V7.65385C15.8078 7.92308 16.0001 8.11538 16.2693 8.11538H17.2308C17.5001 8.11538 17.6924 7.92308 17.6924 7.65385L17.7308 1.46154C17.7308 1.19231 17.5385 1 17.2693 1H11.1155C10.8462 1 10.6539 1.19231 10.6539 1.46154V2.42308C10.6539 2.69231 10.8462 2.88462 11.1155 2.88462H13.6924C13.9616 2.88462 14.1155 3.23077 13.9232 3.42308L10.3078 7.03846C10.1924 7.15385 9.96161 7.15385 9.80777 7.03846L3.88469 1.15385C3.69238 0.961539 3.38469 0.961539 3.19238 1.15385L2.46161 1.84615C2.26931 2.03846 2.26931 2.34615 2.46161 2.57692L9.69238 9.84615C9.88469 10.0769 10.1924 10.0769 10.4232 9.84615L15.2693 4.84615Z" fill="#E70A0A"/>
</svg>
