<svg width="213" height="54" viewBox="0 0 213 54" fill="none" xmlns="http://www.w3.org/2000/svg">
<path d="M56.994 0H57.5391V53.3333H56.7539V0H56.994Z" fill="#FEFEFE"/>
<path fill-rule="evenodd" clip-rule="evenodd" d="M127.831 12.2411V17.9604H132.777C133.718 17.9604 134.458 17.7265 134.478 16.6369C134.528 15.6535 134.528 14.5533 134.478 13.57C134.453 12.5016 133.698 12.2465 132.777 12.2465H127.831V12.2411ZM118.963 17.9604H122.534V7.04281H133.122C136.493 7.04281 139.689 9.37621 139.774 12.8471C139.839 14.1493 139.839 15.712 139.774 17.0142C139.689 20.4585 136.563 23.1959 133.122 23.1959H127.831V31.998H122.534V23.1959H118.963C117.888 23.1959 117.002 22.287 117.002 21.1761V19.9748C117.002 18.864 117.883 17.955 118.963 17.955V17.9604ZM64.2812 7.04281H69.5779V32.0033H64.2812V7.04281ZM77.4603 26.7677H87.9885V32.0033H72.1237V7.04281H77.4553V26.7677H77.4603ZM107.009 18.173L104.384 24.1207H98.4967L95.8359 18.1251V32.0033H90.5393V7.04281H96.6562L101.438 18.3643L106.189 7.04281H112.341V32.0033H107.009V18.173ZM147.202 26.7677H157.73V32.0033H141.865V7.04281H147.197V26.7677H147.202ZM167.503 22.0053V32.0033H162.136V22.0053L154.404 7.04281H160.011L164.822 16.5465L169.634 7.04281H175.24L167.508 22.0053H167.503ZM186.959 32.1734C185.708 32.2425 184.143 32.2425 182.893 32.1734C179.477 31.9767 176.381 29.4147 176.341 25.912C176.266 19.826 176.261 13.6603 176.341 7.57434L176.346 7.04281H181.647L181.637 7.58497C181.592 10.4605 181.612 13.352 181.612 16.2276C181.612 19.1031 181.592 21.9946 181.637 24.8702C181.652 25.8269 181.882 26.8209 183.018 26.8687C184.223 26.9219 185.633 26.9325 186.839 26.8687C188.004 26.8262 188.274 25.8801 188.289 24.8702C188.334 21.9946 188.319 19.1031 188.314 16.2276C188.314 13.352 188.329 10.4605 188.289 7.58497L188.279 7.04281H193.576L193.581 7.57434C193.661 13.6603 193.656 19.826 193.581 25.912C193.536 29.452 190.395 31.982 186.959 32.1734ZM206.36 32.1734C205.064 32.2372 203.529 32.2372 202.234 32.1734C198.928 32.0139 195.642 29.7443 195.642 26.2469V24.2111H201.008V25.5665C201.008 26.4595 201.498 26.8368 202.354 26.8741C203.594 26.9272 205.004 26.9272 206.245 26.8741C207.125 26.8368 207.56 26.4169 207.625 25.5293C207.675 24.8436 207.675 23.9719 207.625 23.2863C207.57 22.5155 207.245 21.9787 206.445 21.8299C204.759 21.5216 203.074 21.2505 201.383 20.9794C198.292 20.4798 196.147 18.3484 195.992 15.2071V12.7248C196.162 9.24865 199.213 7.0747 202.544 6.87804C203.629 6.81425 205.009 6.81425 206.095 6.87804C209.361 7.06939 212.647 9.24864 212.647 12.7355V14.6011H207.28V13.0756C207.28 12.4431 206.515 12.1295 205.965 12.1083C204.959 12.0445 203.674 12.0498 202.669 12.1083C202.059 12.1295 201.358 12.4803 201.283 13.1288C201.238 13.6125 201.243 14.3088 201.283 14.8031C201.323 15.2762 201.653 15.6588 202.129 15.7545C203.794 16.0894 205.455 16.3392 207.135 16.5678C210.896 17.078 212.827 19.6187 212.957 23.2172C213.017 24.158 213.012 25.3326 212.957 26.2734C212.827 29.739 209.706 32.0139 206.365 32.1734H206.36Z" fill="#FEFEFE"/>
<path fill-rule="evenodd" clip-rule="evenodd" d="M5.89338 18.7581C6.95371 15.6806 8.8743 12.9379 10.8499 10.9712C9.13437 10.7639 7.93401 9.37135 7.68393 7.59074C-1.17879 16.8606 -2.06906 29.9574 3.44263 39.9554C14.2509 59.574 40.7841 56.9323 48.5815 36.4951C49.3467 34.4753 50.1519 31.1055 50.257 28.7561L45.5105 28.7455C44.9754 34.6348 42.4346 39.1262 39.4287 42.3685C33.882 48.3535 25.6894 49.9799 18.6223 47.5987C8.76426 44.2714 1.21195 32.3705 5.89838 18.7634L5.89338 18.7581ZM11.5001 4.28996C12.9455 4.28996 14.1159 5.53373 14.1159 7.06984C14.1159 8.60595 12.9455 9.84972 11.5001 9.84972C10.0547 9.84972 8.8843 8.60595 8.8843 7.06984C8.8843 5.53373 10.0547 4.28996 11.5001 4.28996ZM11.5001 4.98094C12.5854 4.98094 13.4657 5.91643 13.4657 7.06984C13.4657 8.22325 12.5854 9.15874 11.5001 9.15874C10.4148 9.15874 9.5345 8.22325 9.5345 7.06984C9.5345 5.91643 10.4148 4.98094 11.5001 4.98094ZM11.5001 4.75239C12.7055 4.75239 13.6808 5.78886 13.6808 7.06984C13.6808 8.35082 12.7055 9.3873 11.5001 9.3873C10.2947 9.3873 9.31943 8.35082 9.31943 7.06984C9.31943 5.78886 10.2947 4.75239 11.5001 4.75239ZM34.2171 16.5576V22.0908H38.5934V12.8475C38.0082 12.704 35.8826 11.0297 35.4874 11.051C34.9273 11.0775 34.012 11.4284 33.6019 11.6357C30.666 13.1239 27.7501 16.3237 25.7795 18.976C25.6744 19.1195 25.5094 19.3694 25.3994 19.4544C23.4938 16.4247 20.2528 13.6927 17.3219 11.8217L15.1062 10.5301C14.521 11.4549 12.9555 12.3851 11.9102 12.4808V31.8443C15.6464 34.5019 20.4028 39.2803 22.7235 43.3624C23.1787 44.1597 22.9786 44.5478 23.8389 44.5424C24.7542 44.5424 25.6644 44.5371 26.5797 44.5424C27.2799 44.5478 27.1349 44.6062 27.62 43.9471C33.5269 36.2666 37.7131 32.8329 44.5652 25.8593C49.9669 20.358 48.9466 17.2326 47.166 13.7192C41.6894 3.6415 32.7666 0.0483815 25.2193 0.00585938C18.3022 0.0430662 13.7908 2.92394 13.0306 3.35447C14.601 4.13582 15.4813 5.81544 15.1662 7.62794C15.1662 7.63326 15.1662 7.63326 15.1662 7.63857C20.803 4.14113 27.9001 4.16771 33.7319 7.0539C35.6875 8.02127 38.9535 10.3015 41.2192 13.007C43.5649 15.8134 44.8453 19.077 42.4796 21.825C40.3489 24.3019 35.5475 28.1821 32.9567 30.6271C30.3459 33.1944 28.0252 36.0699 25.6344 38.8764C23.1087 35.2514 19.7676 32.227 16.7017 30.3294V16.6905C19.4075 19.2737 20.7579 21.1447 22.7485 24.286C22.8686 24.4933 22.9486 24.674 23.0536 24.9025C23.1937 25.2108 23.1487 25.3969 23.1487 25.8061C23.1437 28.3415 23.1487 30.8769 23.1487 33.4123H27.645L27.65 24.7431C27.7151 24.2222 29.2605 21.8728 29.6006 21.3519C30.826 19.4969 32.0464 18.1043 34.2071 16.5629L34.2171 16.5576Z" fill="url(#paint0_linear_745_36)"/>
<path d="M64.201 40.6716C64.201 39.8129 64.3294 39.0922 64.5862 38.5095C64.7779 38.0802 65.0386 37.6949 65.3683 37.3538C65.7018 37.0126 66.0659 36.7596 66.4608 36.5947C66.986 36.3724 67.5916 36.2612 68.2778 36.2612C69.5199 36.2612 70.5127 36.6465 71.2564 37.417C72.0039 38.1875 72.3777 39.259 72.3777 40.6314C72.3777 41.9922 72.0078 43.0579 71.2679 43.8284C70.5281 44.5951 69.539 44.9785 68.3008 44.9785C67.0473 44.9785 66.0506 44.597 65.3108 43.8342C64.5709 43.0675 64.201 42.0133 64.201 40.6716ZM65.9548 40.6141C65.9548 41.5686 66.1752 42.2931 66.616 42.7877C67.0569 43.2783 67.6166 43.5237 68.2951 43.5237C68.9736 43.5237 69.5295 43.2803 69.9626 42.7934C70.3996 42.3027 70.6181 41.5686 70.6181 40.5911C70.6181 39.6251 70.4054 38.9044 69.9799 38.429C69.5582 37.9537 68.9966 37.716 68.2951 37.716C67.5936 37.716 67.0281 37.9575 66.5988 38.4405C66.1694 38.9197 65.9548 39.6442 65.9548 40.6141ZM75.3448 39.8206H73.729V38.6648C73.729 38.1971 73.7692 37.8291 73.8497 37.5608C73.9341 37.2886 74.0874 37.0452 74.3097 36.8305C74.5321 36.6158 74.8158 36.4472 75.1608 36.3245L75.477 36.9915C75.155 37.0988 74.9231 37.2483 74.7813 37.44C74.6433 37.6317 74.5704 37.8866 74.5628 38.2048H75.3448V39.8206ZM83.7745 43.7652C84.1923 44.0642 84.6466 44.3019 85.1373 44.4782L84.5105 45.68C84.2537 45.6033 84.0026 45.4979 83.7573 45.3637C83.7036 45.3369 83.326 45.0877 82.6245 44.6162C82.0725 44.8577 81.461 44.9785 80.7902 44.9785C79.4945 44.9785 78.4786 44.597 77.7426 43.8342C77.0104 43.0713 76.6443 41.9999 76.6443 40.6199C76.6443 39.2436 77.0123 38.1741 77.7483 37.4113C78.4844 36.6446 79.483 36.2612 80.7442 36.2612C81.9939 36.2612 82.9848 36.6446 83.717 37.4113C84.4492 38.1741 84.8153 39.2436 84.8153 40.6199C84.8153 41.3482 84.7137 41.9884 84.5105 42.5404C84.3572 42.9621 84.1118 43.3703 83.7745 43.7652ZM82.406 42.8049C82.6245 42.5481 82.7874 42.2376 82.8947 41.8734C83.0059 41.5092 83.0615 41.0914 83.0615 40.6199C83.0615 39.6462 82.8468 38.9197 82.4175 38.4405C81.9881 37.9575 81.4265 37.716 80.7327 37.716C80.0388 37.716 79.4753 37.9575 79.0421 38.4405C78.6128 38.9236 78.3981 39.65 78.3981 40.6199C78.3981 41.605 78.6128 42.343 79.0421 42.8337C79.4753 43.3205 80.0216 43.5639 80.6809 43.5639C80.9263 43.5639 81.1582 43.5237 81.3767 43.4432C81.0317 43.217 80.6809 43.0407 80.3244 42.9142L80.8017 41.9424C81.3614 42.1341 81.8961 42.4216 82.406 42.8049ZM86.1436 36.405H87.8456V40.9706C87.8456 41.6951 87.8667 42.1647 87.9089 42.3794C87.9817 42.7244 88.1542 43.0023 88.4264 43.2132C88.7024 43.4202 89.0781 43.5237 89.5534 43.5237C90.0364 43.5237 90.4006 43.4259 90.6459 43.2304C90.8913 43.0311 91.0389 42.7877 91.0887 42.5002C91.1385 42.2126 91.1635 41.7354 91.1635 41.0684V36.405H92.8655V40.8326C92.8655 41.8446 92.8195 42.5596 92.7275 42.9774C92.6355 43.3953 92.4649 43.7479 92.2157 44.0354C91.9704 44.323 91.6407 44.553 91.2267 44.7255C90.8127 44.8941 90.2722 44.9785 89.6052 44.9785C88.8001 44.9785 88.1887 44.8865 87.7709 44.7025C87.3568 44.5146 87.0291 44.2731 86.7876 43.9779C86.5461 43.6789 86.387 43.3665 86.3103 43.0407C86.1991 42.5577 86.1436 41.8446 86.1436 40.9016V36.405ZM96.8159 44.8347L93.8028 36.405H95.6486L97.7819 42.6439L99.8462 36.405H101.652L98.6329 44.8347H96.8159ZM105.775 44.8347V36.405H108.322L109.851 42.1551L111.364 36.405H113.917V44.8347H112.336V38.199L110.662 44.8347H109.023L107.356 38.199V44.8347H105.775ZM123.209 44.8347H121.358L120.622 42.9199H117.252L116.556 44.8347H114.751L118.034 36.405H119.834L123.209 44.8347ZM120.075 41.4996L118.914 38.3715L117.775 41.4996H120.075ZM124.123 44.8347V36.405H127.706C128.607 36.405 129.26 36.4817 129.666 36.635C130.077 36.7845 130.404 37.0528 130.65 37.44C130.895 37.8272 131.018 38.27 131.018 38.7683C131.018 39.4008 130.832 39.9241 130.46 40.3381C130.088 40.7483 129.532 41.007 128.792 41.1144C129.16 41.329 129.463 41.5648 129.701 41.8216C129.942 42.0785 130.266 42.5347 130.673 43.1902L131.702 44.8347H129.666L128.436 43.0004C127.999 42.3449 127.7 41.9328 127.539 41.7641C127.378 41.5916 127.207 41.4747 127.027 41.4134C126.847 41.3482 126.561 41.3156 126.17 41.3156H125.825V44.8347H124.123ZM125.825 39.9701H127.085C127.901 39.9701 128.411 39.9356 128.614 39.8666C128.817 39.7976 128.976 39.6787 129.091 39.5101C129.206 39.3414 129.264 39.1306 129.264 38.8776C129.264 38.5939 129.187 38.3658 129.034 38.1933C128.884 38.0169 128.672 37.9058 128.396 37.8598C128.258 37.8406 127.844 37.831 127.154 37.831H125.825V39.9701ZM132.651 44.8347V36.405H134.353V40.1483L137.791 36.405H140.08L136.906 39.6883L140.253 44.8347H138.05L135.733 40.8786L134.353 42.2874V44.8347H132.651ZM148.74 44.8347H146.888L146.152 42.9199H142.783L142.087 44.8347H140.281L143.565 36.405H145.364L148.74 44.8347ZM145.606 41.4996L144.444 38.3715L143.306 41.4996H145.606ZM148.918 44.8347V43.2994L153.346 37.831H149.418V36.405H155.588V37.7275L150.971 43.4144H155.766V44.8347H148.918ZM156.796 44.8347V36.405H158.498V44.8347H156.796Z" fill="#FEFEFE"/>
<defs>
<linearGradient id="paint0_linear_745_36" x1="2.63738" y1="24.3551" x2="50.252" y2="24.3551" gradientUnits="userSpaceOnUse">
<stop stop-color="#FE9100"/>
<stop offset="1" stop-color="#FF4000"/>
</linearGradient>
</defs>
</svg>
