<svg width="30" height="30" viewBox="0 0 30 30" fill="none" xmlns="http://www.w3.org/2000/svg">
<path d="M18.7499 19.0684C17.3326 18.0797 15.609 17.5 13.7499 17.5C9.25499 17.5 5.5517 20.8892 5.05623 25.2516C5.02116 25.5604 5.00363 25.7147 5.06526 25.8639C5.1157 25.9857 5.22488 26.108 5.34038 26.1719C5.48153 26.25 5.65433 26.25 5.9999 26.25H12.4308M17.4999 24.1071L19.7499 26.25L24.9999 21.25M18.7499 8.75C18.7499 11.5114 16.5114 13.75 13.7499 13.75C10.9885 13.75 8.7499 11.5114 8.7499 8.75C8.7499 5.98857 10.9885 3.75 13.7499 3.75C16.5114 3.75 18.7499 5.98857 18.7499 8.75Z" stroke="white" stroke-width="2.5" stroke-linecap="round" stroke-linejoin="round"/>
</svg>
