<svg width="247" height="58" viewBox="0 0 247 58" fill="none" xmlns="http://www.w3.org/2000/svg">
<g clip-path="url(#clip0_50_625)">
<path d="M65.8734 0H66.5035V58H65.596V0H65.8734Z" fill="#FEFEFE"/>
<path fill-rule="evenodd" clip-rule="evenodd" d="M147.74 13.3121V19.5318H153.457C154.544 19.5318 155.399 19.2775 155.423 18.0925C155.48 17.0231 155.48 15.8266 155.423 14.7572C155.394 13.5954 154.521 13.3179 153.457 13.3179H147.74V13.3121ZM137.492 19.5318H141.619V7.65896H153.856C157.752 7.65896 161.446 10.1965 161.544 13.9711C161.619 15.3873 161.619 17.0867 161.544 18.5029C161.446 22.2486 157.833 25.2254 153.856 25.2254H147.74V34.7977H141.619V25.2254H137.492C136.249 25.2254 135.226 24.237 135.226 23.0289V21.7225C135.226 20.5145 136.243 19.526 137.492 19.526V19.5318ZM74.2954 7.65896H80.4168V34.8035H74.2954V7.65896ZM89.5266 29.1098H101.694V34.8035H83.359V7.65896H89.5208V29.1098H89.5266ZM123.677 19.763L120.642 26.2312H113.839L110.764 19.711V34.8035H104.642V7.65896H111.712L117.238 19.9711L122.729 7.65896H129.839V34.8035H123.677V19.763ZM170.128 29.1098H182.295V34.8035H163.96V7.65896H170.122V29.1098H170.128ZM193.59 23.9306V34.8035H187.388V23.9306L178.451 7.65896H184.931L190.492 17.9942L196.053 7.65896H202.532L193.596 23.9306H193.59ZM216.076 34.9884C214.631 35.0636 212.821 35.0636 211.376 34.9884C207.428 34.7746 203.85 31.9884 203.804 28.1792C203.717 21.5607 203.712 14.8555 203.804 8.237L203.81 7.65896H209.937L209.925 8.24856C209.873 11.3757 209.897 14.5202 209.897 17.6474C209.897 20.7746 209.873 23.9191 209.925 27.0462C209.943 28.0867 210.209 29.1676 211.521 29.2197C212.914 29.2775 214.544 29.289 215.937 29.2197C217.284 29.1734 217.596 28.1445 217.613 27.0462C217.665 23.9191 217.648 20.7746 217.642 17.6474C217.642 14.5202 217.66 11.3757 217.613 8.24856L217.602 7.65896H223.723L223.729 8.237C223.821 14.8555 223.816 21.5607 223.729 28.1792C223.677 32.0289 220.047 34.7804 216.076 34.9884ZM238.498 34.9884C237.001 35.0578 235.226 35.0578 233.729 34.9884C229.908 34.815 226.11 32.3468 226.11 28.5434V26.3295H232.313V27.8035C232.313 28.7746 232.879 29.185 233.868 29.2254C235.301 29.2832 236.931 29.2832 238.365 29.2254C239.382 29.185 239.885 28.7283 239.96 27.763C240.018 27.0173 240.018 26.0694 239.96 25.3237C239.897 24.4856 239.521 23.9017 238.596 23.7399C236.648 23.4046 234.7 23.1098 232.746 22.815C229.174 22.2717 226.694 19.9538 226.515 16.5376V13.8382C226.712 10.0578 230.238 7.69365 234.087 7.47977C235.342 7.41041 236.937 7.41041 238.191 7.47977C241.966 7.68787 245.764 10.0578 245.764 13.8497V15.8786H239.561V14.2197C239.561 13.5318 238.677 13.1908 238.041 13.1676C236.879 13.0983 235.394 13.1041 234.232 13.1676C233.527 13.1908 232.717 13.5723 232.631 14.2775C232.579 14.8035 232.584 15.5607 232.631 16.0983C232.677 16.6127 233.058 17.0289 233.608 17.133C235.532 17.4971 237.451 17.7688 239.394 18.0173C243.74 18.5723 245.972 21.3353 246.122 25.2486C246.191 26.2717 246.186 27.5491 246.122 28.5723C245.972 32.341 242.365 34.815 238.503 34.9884H238.498Z" fill="#FEFEFE"/>
<path fill-rule="evenodd" clip-rule="evenodd" d="M6.81562 20.3988C8.04105 17.052 10.2607 14.0694 12.5439 11.9306C10.5613 11.7052 9.174 10.1907 8.88498 8.25433C-1.35779 18.3353 -2.3867 32.578 3.98325 43.4509C16.4746 64.7861 47.1393 61.9133 56.1509 39.6879C57.0353 37.4913 57.9659 33.8266 58.0873 31.2717L52.6017 31.2601C51.9832 37.6647 49.0468 42.5491 45.5728 46.0751C39.1624 52.5838 29.6942 54.3526 21.5266 51.763C10.1335 48.1445 1.40521 35.2023 6.8214 20.4046L6.81562 20.3988ZM13.2954 4.66473C14.9659 4.66473 16.3185 6.01734 16.3185 7.68786C16.3185 9.35838 14.9659 10.711 13.2954 10.711C11.6249 10.711 10.2723 9.35838 10.2723 7.68786C10.2723 6.01734 11.6249 4.66473 13.2954 4.66473ZM13.2954 5.41618C14.5497 5.41618 15.5671 6.43352 15.5671 7.68786C15.5671 8.94219 14.5497 9.95953 13.2954 9.95953C12.041 9.95953 11.0237 8.94219 11.0237 7.68786C11.0237 6.43352 12.041 5.41618 13.2954 5.41618ZM13.2954 5.16762C14.6884 5.16762 15.8156 6.29479 15.8156 7.68786C15.8156 9.08092 14.6884 10.2081 13.2954 10.2081C11.9023 10.2081 10.7752 9.08092 10.7752 7.68786C10.7752 6.29479 11.9023 5.16762 13.2954 5.16762ZM39.5497 18.0058V24.0231H44.6075V13.9711C43.9312 13.815 41.4746 11.9942 41.0179 12.0173C40.3705 12.0462 39.3127 12.4277 38.8387 12.6532C35.4457 14.2717 32.0757 17.7514 29.7983 20.6358C29.6769 20.7919 29.4861 21.0636 29.359 21.1561C27.1567 17.8613 23.411 14.8902 20.0237 12.8555L17.463 11.4509C16.7867 12.4566 14.9775 13.4682 13.7694 13.5722V34.6301C18.0873 37.5202 23.5844 42.7168 26.2665 47.1561C26.7925 48.0231 26.5613 48.4451 27.5555 48.4393C28.6133 48.4393 29.6653 48.4335 30.7231 48.4393C31.5324 48.4451 31.3647 48.5087 31.9254 47.7919C38.752 39.4393 43.5902 35.7052 51.5093 28.1214C57.752 22.1387 56.5728 18.7399 54.515 14.9191C48.1856 3.95953 37.8734 0.0520182 29.1509 0.00577545C21.1567 0.0462379 15.9428 3.17919 15.0642 3.64739C16.8792 4.4971 17.8965 6.32369 17.5324 8.29479C17.5324 8.30057 17.5324 8.30057 17.5324 8.30635C24.0468 4.50288 32.2491 4.53179 38.989 7.67052C41.2491 8.72254 45.0237 11.2023 47.6422 14.1445C50.3532 17.1965 51.833 20.7457 49.0989 23.7341C46.6364 26.4277 41.0873 30.6474 38.0931 33.3064C35.0757 36.0983 32.3937 39.2254 29.6306 42.2774C26.7116 38.3353 22.8503 35.0462 19.3069 32.9827V18.1503C22.4341 20.9595 23.9948 22.9942 26.2954 26.4104C26.4341 26.6358 26.5266 26.8324 26.648 27.0809C26.8098 27.4162 26.7578 27.6185 26.7578 28.0636C26.752 30.8208 26.7578 33.578 26.7578 36.3353H31.9543L31.9601 26.9075C32.0353 26.341 33.8214 23.7861 34.2145 23.2196C35.6306 21.2023 37.041 19.6879 39.5382 18.0116L39.5497 18.0058Z" fill="url(#paint0_linear_50_625)"/>
<path d="M76.9676 49.7948V41.2597H73.9194V39.5219H82.0831V41.2597H79.0418V49.7948H76.9676ZM91.6272 49.7948H89.3708L88.4738 47.4613H84.3675L83.5196 49.7948H81.3192L85.3205 39.5219H87.5138L91.6272 49.7948ZM87.8081 45.7305L86.3926 41.9184L85.0052 45.7305H87.8081ZM91.8724 39.5499H93.8415V40.9584C93.8415 41.5283 93.7925 41.9792 93.6944 42.3108C93.5963 42.6379 93.4094 42.9322 93.1338 43.1938C92.8628 43.4554 92.5171 43.6609 92.0967 43.8104L91.7113 42.9976C92.1083 42.8668 92.391 42.6869 92.5592 42.458C92.7273 42.2291 92.8161 41.9161 92.8254 41.519H91.8724V39.5499ZM95.9858 49.7948V39.606H98.06V48.0639H103.217V49.7948H95.9858ZM104.64 49.7948V39.5219H106.714V49.7948H104.64ZM108.669 49.7948V39.5219H111.774L113.637 46.5293L115.48 39.5219H118.592V49.7948H116.665V41.7082L114.626 49.7948H112.628L110.596 41.7082V49.7948H108.669ZM126.959 49.7948V41.2597H123.91V39.5219H132.074V41.2597H129.033V49.7948H126.959ZM133.356 49.7948V39.5219H135.431V49.7948H133.356ZM136.524 49.7948V47.9238L141.919 41.2597H137.133V39.5219H144.652V41.1336L139.025 48.0639H144.87V49.7948H136.524ZM146.124 49.7948V39.5219H148.198V49.7948H146.124ZM150.153 49.7948V39.5219H153.257L155.121 46.5293L156.964 39.5219H160.076V49.7948H158.149V41.7082L156.11 49.7948H154.112L152.08 41.7082V49.7948H150.153ZM162.073 49.7948V39.5219H164.147V49.7948H162.073Z" fill="#FEFEFE"/>
</g>
<defs>
<linearGradient id="paint0_linear_50_625" x1="3.05261" y1="26.4855" x2="58.0815" y2="26.4855" gradientUnits="userSpaceOnUse">
<stop stop-color="#FE9100"/>
<stop offset="1" stop-color="#FF4000"/>
</linearGradient>
<clipPath id="clip0_50_625">
<rect width="246.169" height="58" fill="white"/>
</clipPath>
</defs>
</svg>
