<svg width="30" height="42" viewBox="0 0 30 42" fill="none" xmlns="http://www.w3.org/2000/svg">
<path d="M27.5117 4.64789H20.4497C20.0894 2.02634 17.8362 0 15.1173 0C12.3984 0 10.1451 2.02634 9.78493 4.64789H2.58211C1.18423 4.64789 0 5.78521 0 7.1831V39.2958C0 40.6937 1.18423 41.831 2.58211 41.831H27.5117C28.9096 41.831 30 40.6937 30 39.2958V7.1831C30 5.78521 28.9096 4.64789 27.5117 4.64789ZM7.19042 6.76056C7.6738 9.30042 9.87831 11.1268 12.5555 11.1268H17.6793C20.3565 11.1268 22.561 9.30042 23.0444 6.76056H25.493V37.1831H4.64789V6.76056H7.19042ZM15.1173 2.25352C16.59 2.25352 17.8275 3.27592 18.1597 4.64789H12.0751C12.4072 3.27592 13.6446 2.25352 15.1173 2.25352Z" fill="white"/>
<path d="M15.0706 15.3521H8.02832V17.4647H15.0706V15.3521Z" fill="white"/>
<path d="M22.3507 14.7995L20.7952 13.3696L18.7926 15.5479L17.9208 14.8377L16.5864 16.4755L19.0011 18.4429L22.3507 14.7995Z" fill="white"/>
<path d="M15.0706 22.1127H8.02832V24.2253H15.0706V22.1127Z" fill="white"/>
<path d="M22.3507 21.5599L20.7952 20.13L18.7926 22.3083L17.9208 21.598L16.5864 23.2359L19.0011 25.2032L22.3507 21.5599Z" fill="white"/>
<path d="M15.0706 28.8732H8.02832V30.9858H15.0706V28.8732Z" fill="white"/>
<path d="M22.3507 28.3206L20.7952 26.8907L18.7926 29.0691L17.9208 28.3588L16.5864 29.9967L19.0011 31.964L22.3507 28.3206Z" fill="white"/>
</svg>
